<?xml version="1.0" encoding="utf-8"?>
<svg viewBox="0 0 503.734 95.316" xmlns="http://www.w3.org/2000/svg">
  <g id="svgg" style="" transform="matrix(0.187075, 0, 0, 0.184361, 9.755101, 9.718541)">
    <path id="path0" d="M193.200 210.368 C 191.770 210.538,189.622 210.975,188.427 211.339 C 187.232 211.702,185.928 212.000,185.529 212.000 C 185.130 212.000,183.439 212.630,181.772 213.400 C 180.105 214.170,178.507 214.800,178.220 214.800 C 177.933 214.800,177.474 215.070,177.200 215.400 C 176.926 215.730,176.527 216.000,176.313 216.000 C 172.028 216.000,156.400 233.580,156.400 238.400 C 156.400 238.803,156.070 239.914,155.667 240.867 C 153.761 245.374,153.104 257.133,154.498 261.800 C 156.143 267.308,157.440 270.309,160.375 275.400 C 162.982 279.923,163.131 279.560,155.878 286.375 C 149.636 292.241,149.961 292.139,146.552 289.302 C 144.156 287.307,144.208 287.282,138.000 293.366 C 133.259 298.013,130.622 300.552,122.755 308.043 C 121.741 309.009,119.221 311.330,117.155 313.199 C 106.306 323.020,105.625 323.829,107.108 325.126 C 110.023 327.675,117.310 334.458,121.094 338.145 C 124.431 341.397,123.762 341.568,129.518 335.981 C 134.177 331.459,136.936 328.879,142.755 323.600 C 144.817 321.730,146.885 319.773,147.352 319.252 C 147.818 318.731,149.370 317.319,150.800 316.114 C 154.387 313.093,162.400 305.144,162.400 304.607 C 162.400 304.365,161.590 303.372,160.600 302.400 C 157.810 299.662,157.985 299.281,165.014 292.757 C 169.789 288.324,170.684 287.689,171.838 287.909 C 172.926 288.117,178.034 290.820,179.200 291.804 C 179.530 292.083,180.430 292.442,181.200 292.602 C 181.970 292.762,182.788 293.043,183.017 293.226 C 183.471 293.590,187.484 294.563,191.600 295.308 C 198.276 296.517,210.794 295.429,215.800 293.206 C 216.240 293.010,217.050 292.728,217.600 292.578 C 218.150 292.428,218.870 292.080,219.200 291.804 C 219.530 291.528,221.024 290.701,222.519 289.965 C 226.464 288.024,233.533 282.170,235.883 278.898 C 236.277 278.349,236.971 277.427,237.424 276.850 C 238.646 275.292,239.905 273.003,241.056 270.250 C 241.619 268.903,242.339 267.508,242.656 267.151 C 242.973 266.794,243.413 265.534,243.633 264.351 C 243.854 263.168,244.196 261.390,244.394 260.400 C 244.993 257.391,244.851 246.439,244.188 244.600 C 243.871 243.720,243.609 242.450,243.606 241.778 C 243.603 241.105,243.150 239.945,242.600 239.200 C 242.050 238.455,241.600 237.522,241.600 237.129 C 241.600 236.115,239.364 231.624,238.257 230.414 C 237.747 229.857,236.913 228.770,236.406 228.000 C 234.929 225.761,229.260 220.487,226.000 218.320 C 224.350 217.223,222.640 216.007,222.200 215.618 C 221.760 215.229,221.040 214.811,220.600 214.688 C 220.160 214.566,218.270 213.905,216.400 213.219 C 209.306 210.616,200.352 209.515,193.200 210.368 M206.962 218.205 C 228.766 222.377,242.228 244.016,235.329 263.800 C 226.071 290.349,190.459 297.245,170.948 276.268 C 147.333 250.878,171.775 211.472,206.962 218.205 M196.029 235.152 C 194.615 235.523,193.385 236.045,193.296 236.313 C 193.206 236.581,192.686 236.800,192.140 236.800 C 191.594 236.800,190.557 237.250,189.836 237.800 C 189.114 238.350,188.414 238.800,188.278 238.800 C 187.718 238.800,184.120 242.992,183.100 244.835 C 181.268 248.141,180.086 255.046,181.165 256.125 C 181.478 256.438,181.600 256.323,181.600 255.713 C 181.600 253.791,181.998 253.527,183.277 254.603 C 184.671 255.776,185.200 255.604,185.200 253.976 C 185.200 252.929,185.335 252.800,186.433 252.800 C 187.410 252.800,188.365 252.164,191.033 249.735 C 194.656 246.437,194.853 246.053,193.544 244.833 L 192.687 244.035 191.915 245.018 C 190.951 246.242,190.078 246.274,189.634 245.100 C 189.179 243.894,189.792 242.831,191.231 242.329 C 191.874 242.105,192.400 241.669,192.400 241.361 C 192.400 240.478,194.045 240.687,194.284 241.600 C 194.621 242.889,195.200 242.519,195.200 241.014 C 195.200 240.053,194.963 239.501,194.426 239.214 C 193.408 238.669,193.478 238.650,192.238 239.800 C 190.486 241.424,189.686 241.091,191.036 239.300 C 192.695 237.101,193.170 236.852,195.642 236.883 L 197.883 236.912 197.801 239.156 C 197.755 240.390,197.582 241.895,197.416 242.500 C 197.077 243.731,197.916 244.065,198.767 243.039 C 199.023 242.731,199.645 242.375,200.148 242.249 C 201.111 242.007,202.196 240.128,203.582 236.300 C 203.801 235.695,204.210 235.197,204.490 235.194 C 204.843 235.190,204.815 235.069,204.400 234.800 C 203.481 234.206,198.900 234.399,196.029 235.152 M206.600 236.000 C 206.736 236.220,207.387 236.400,208.047 236.400 C 208.745 236.400,209.144 236.233,209.000 236.000 C 208.864 235.780,208.213 235.600,207.553 235.600 C 206.855 235.600,206.456 235.767,206.600 236.000 M210.290 237.323 C 212.834 238.736,213.780 242.537,211.400 241.780 C 208.448 240.840,206.832 241.578,206.809 243.876 C 206.796 245.166,207.415 245.324,207.943 244.165 C 208.478 242.991,209.200 243.228,209.200 244.578 C 209.200 245.529,207.738 246.800,206.643 246.800 C 206.321 246.800,205.687 247.295,205.233 247.900 C 204.780 248.505,204.227 249.217,204.004 249.483 C 203.782 249.749,203.600 250.386,203.600 250.899 C 203.600 251.411,203.240 252.537,202.800 253.400 C 201.552 255.847,202.490 257.600,205.047 257.600 C 206.886 257.600,208.000 259.122,208.000 261.632 C 208.000 267.297,211.525 266.202,213.574 259.900 C 213.843 259.075,214.208 258.400,214.387 258.400 C 214.565 258.400,214.830 257.766,214.975 256.991 C 215.121 256.216,215.591 255.363,216.020 255.095 C 216.449 254.827,216.800 254.201,216.800 253.704 C 216.800 252.971,217.022 252.800,217.971 252.800 C 219.484 252.800,220.800 254.418,220.800 256.278 C 220.800 257.089,220.963 257.546,221.200 257.400 C 221.859 256.993,221.678 250.444,220.951 248.413 C 219.580 244.585,218.781 243.256,216.331 240.738 C 213.749 238.085,211.738 236.789,210.239 236.814 C 209.414 236.828,209.414 236.836,210.290 237.323 M208.176 249.813 C 208.604 250.136,209.561 250.400,210.304 250.400 C 211.477 250.400,211.639 250.519,211.528 251.300 C 211.373 252.394,209.132 252.678,207.833 251.768 C 207.387 251.456,206.702 251.200,206.311 251.200 C 205.614 251.200,205.311 250.022,205.867 249.467 C 206.304 249.030,207.348 249.186,208.176 249.813 M189.867 257.467 C 188.891 258.443,189.649 261.059,191.400 262.756 C 192.435 263.759,193.200 264.866,193.200 265.361 C 193.200 265.835,193.446 266.577,193.746 267.011 C 194.809 268.547,194.901 269.514,194.011 269.797 C 191.481 270.600,196.587 271.696,202.000 271.512 L 206.200 271.369 201.718 271.284 C 197.505 271.205,197.175 271.139,196.218 270.182 C 194.925 268.889,194.860 269.274,197.237 264.156 C 198.641 261.132,198.386 260.588,194.642 258.636 C 192.015 257.267,190.450 256.884,189.867 257.467 M181.869 258.164 C 181.607 258.848,181.977 260.400,182.403 260.400 C 182.574 260.400,182.816 260.805,182.942 261.300 C 183.234 262.450,187.553 267.600,188.226 267.600 C 188.505 267.600,188.800 267.801,188.882 268.046 C 188.964 268.291,189.384 268.409,189.815 268.308 C 190.564 268.132,190.566 268.109,189.861 267.804 C 188.981 267.424,185.200 263.708,185.200 263.224 C 185.200 263.038,184.930 262.782,184.600 262.655 C 184.270 262.529,184.000 262.054,184.000 261.600 C 184.000 261.146,183.730 260.671,183.400 260.545 C 183.062 260.415,182.800 259.819,182.800 259.181 C 182.800 257.931,182.207 257.283,181.869 258.164 M219.900 258.228 C 219.735 258.396,219.600 259.024,219.600 259.624 C 219.600 260.224,219.330 260.818,219.000 260.945 C 218.670 261.071,218.400 261.443,218.400 261.770 C 218.400 262.097,217.682 263.138,216.805 264.083 C 215.928 265.027,215.208 265.935,215.205 266.100 C 215.202 266.265,214.930 266.400,214.600 266.400 C 214.270 266.400,214.000 266.670,214.000 267.000 C 214.000 267.330,213.651 267.600,213.224 267.600 C 212.797 267.600,212.336 267.780,212.200 268.000 C 211.304 269.451,213.972 267.986,216.026 265.900 C 219.384 262.491,219.600 262.225,219.600 261.500 C 219.600 261.152,219.794 260.802,220.032 260.723 C 220.270 260.643,220.405 259.981,220.332 259.251 C 220.259 258.521,220.065 258.061,219.900 258.228 M190.600 269.200 C 190.736 269.420,191.197 269.600,191.624 269.600 C 192.051 269.600,192.400 269.420,192.400 269.200 C 192.400 268.980,191.939 268.800,191.376 268.800 C 190.796 268.800,190.460 268.973,190.600 269.200 M210.200 269.200 C 210.064 269.420,210.313 269.600,210.753 269.600 C 211.193 269.600,211.664 269.420,211.800 269.200 C 211.936 268.980,211.687 268.800,211.247 268.800 C 210.807 268.800,210.336 268.980,210.200 269.200 M207.200 270.400 C 207.200 270.908,208.414 270.908,209.200 270.400 C 209.655 270.106,209.486 270.011,208.500 270.006 C 207.785 270.003,207.200 270.180,207.200 270.400 " stroke="none" fill="#1186b8" fill-rule="evenodd"/>
    <path id="path1" d="M182.524 57.139 C 181.382 57.503,180.317 57.935,180.157 58.100 C 179.997 58.265,179.613 58.400,179.303 58.400 C 178.476 58.400,174.264 61.749,172.897 63.494 C 169.768 67.488,168.357 71.232,168.036 76.400 C 167.778 80.562,167.181 81.265,165.077 79.888 C 160.967 77.198,153.289 77.461,147.606 80.485 C 145.442 81.637,139.600 87.180,139.600 88.082 C 139.600 88.332,139.367 88.821,139.082 89.169 C 138.417 89.978,137.401 93.135,136.818 96.200 C 136.486 97.947,136.394 114.244,136.481 156.100 L 136.600 213.600 135.774 213.600 C 135.229 213.600,134.647 213.065,134.065 212.031 C 133.580 211.167,133.052 210.402,132.892 210.331 C 132.731 210.259,131.707 209.030,130.616 207.600 C 129.524 206.170,128.526 204.910,128.397 204.800 C 128.268 204.690,127.279 203.430,126.200 202.000 C 125.121 200.570,124.130 199.310,123.999 199.200 C 123.869 199.090,122.530 197.412,121.026 195.472 C 115.915 188.882,111.144 186.400,103.585 186.400 C 86.162 186.400,75.517 204.481,83.214 221.000 C 83.521 221.660,86.703 226.160,90.285 231.000 C 93.867 235.840,98.774 242.500,101.190 245.800 C 103.605 249.100,105.730 251.980,105.912 252.200 C 106.237 252.594,107.194 253.882,119.587 270.600 C 123.012 275.220,127.791 281.660,130.207 284.912 C 132.623 288.163,134.780 291.118,135.000 291.477 C 136.382 293.733,136.434 293.719,140.140 290.112 C 144.009 286.345,143.938 286.484,142.700 285.139 C 142.205 284.601,141.323 283.450,140.739 282.581 C 140.156 281.711,139.387 280.640,139.030 280.200 C 138.674 279.760,135.668 275.710,132.351 271.200 C 126.284 262.951,120.224 254.746,114.182 246.600 C 98.046 224.842,92.400 217.115,92.400 216.785 C 92.400 216.573,92.241 216.400,92.046 216.400 C 91.363 216.400,90.400 212.421,90.400 209.600 C 90.400 202.691,96.553 196.400,103.311 196.400 C 108.257 196.400,110.422 197.983,116.989 206.400 C 118.962 208.930,120.681 211.090,120.807 211.200 C 120.934 211.310,121.923 212.570,123.006 214.000 C 124.089 215.430,125.203 216.835,125.481 217.123 C 125.760 217.410,126.837 218.760,127.875 220.123 C 128.913 221.485,129.869 222.690,130.000 222.800 C 130.131 222.910,131.124 224.170,132.208 225.600 C 138.976 234.533,141.418 236.099,144.388 233.411 C 146.517 231.484,146.400 235.556,146.400 163.415 L 146.400 96.750 147.422 94.590 C 151.011 87.004,160.739 85.930,165.797 92.561 C 168.035 95.494,168.008 94.937,167.996 138.893 C 167.990 161.127,168.069 179.403,168.172 179.505 C 168.521 179.854,176.865 179.695,177.228 179.332 C 177.437 179.123,177.633 157.049,177.694 126.786 L 177.800 74.600 178.679 72.768 C 180.220 69.556,183.503 67.090,186.991 66.524 C 188.512 66.277,193.200 67.439,193.200 68.063 C 193.200 68.248,193.390 68.400,193.623 68.400 C 194.245 68.400,196.330 70.762,197.329 72.600 L 198.200 74.200 198.407 124.200 C 198.521 151.700,198.656 174.245,198.707 174.300 C 198.758 174.355,200.866 174.400,203.392 174.400 L 207.983 174.400 208.092 130.100 C 208.213 81.290,208.102 83.442,210.660 80.401 C 214.464 75.881,224.192 76.505,226.930 81.445 C 229.110 85.378,228.990 82.416,229.115 135.696 L 229.230 184.792 230.115 185.013 C 230.602 185.135,232.710 185.182,234.800 185.117 L 238.600 185.000 238.830 150.000 C 239.069 113.407,239.085 113.091,240.859 109.324 C 242.649 105.522,244.401 104.598,249.800 104.605 C 255.224 104.611,257.132 106.102,259.009 111.800 C 260.210 115.443,260.256 281.277,259.058 285.800 C 257.479 291.760,254.288 298.476,251.819 301.034 C 251.589 301.273,250.770 302.247,250.000 303.199 C 248.822 304.655,247.489 305.854,243.326 309.202 C 236.838 314.419,231.683 315.184,203.000 315.185 C 174.006 315.186,171.634 314.858,163.633 309.739 L 160.738 307.887 158.469 310.095 C 157.221 311.310,155.597 312.877,154.859 313.578 C 153.316 315.046,153.112 314.735,157.600 317.756 C 163.358 321.631,168.219 323.584,175.200 324.827 C 181.553 325.958,224.449 325.973,230.800 324.846 C 248.607 321.687,262.736 308.669,267.754 290.800 C 269.682 283.932,269.600 288.034,269.600 198.666 C 269.600 110.894,269.615 111.745,267.983 107.800 C 266.429 104.046,265.850 102.922,264.720 101.468 C 259.189 94.356,249.325 92.059,241.485 96.059 C 238.992 97.331,238.800 97.046,238.800 92.067 C 238.800 87.251,238.075 82.743,236.731 79.199 C 234.053 72.138,228.404 67.915,220.920 67.380 C 216.314 67.051,211.359 67.974,209.514 69.505 C 208.022 70.743,207.158 70.307,205.650 67.551 C 200.657 58.431,191.466 54.293,182.524 57.139 M192.926 218.803 C 166.920 222.605,153.711 252.461,169.036 272.800 C 188.540 298.686,230.868 289.179,235.820 257.800 C 239.475 234.643,218.016 215.135,192.926 218.803 M203.210 228.424 C 211.012 229.401,220.402 233.870,218.774 235.831 C 218.075 236.674,217.651 236.570,213.652 234.583 C 202.479 229.031,191.909 229.764,184.029 236.637 C 181.452 238.884,180.886 239.126,180.080 238.320 C 179.309 237.549,179.507 236.983,181.100 235.411 C 186.862 229.723,194.445 227.327,203.210 228.424 M208.760 235.143 C 213.881 237.115,218.031 240.663,220.080 244.821 C 224.582 253.959,221.381 264.576,212.609 269.595 C 201.861 275.744,186.655 271.554,182.146 261.200 C 181.907 260.650,181.416 259.519,181.055 258.686 C 179.858 255.921,180.544 246.761,182.035 245.600 C 182.177 245.490,182.409 245.024,182.552 244.565 C 182.696 244.106,183.305 243.177,183.906 242.501 C 184.508 241.825,185.376 240.851,185.835 240.336 C 186.875 239.171,188.448 237.838,189.217 237.471 C 189.538 237.318,190.430 236.810,191.200 236.342 C 195.247 233.883,203.944 233.289,208.760 235.143 M203.831 236.865 C 202.837 239.990,201.969 241.846,201.349 242.179 C 200.937 242.400,199.930 243.011,199.111 243.537 C 196.663 245.110,195.758 244.174,197.069 241.424 C 197.864 239.758,197.336 238.000,196.042 238.000 C 195.616 238.000,195.207 237.861,195.133 237.690 C 195.060 237.520,194.370 237.600,193.600 237.868 C 192.357 238.300,192.315 238.357,193.224 238.377 C 195.622 238.430,196.669 242.220,194.600 243.359 C 194.160 243.602,193.715 243.855,193.612 243.922 C 193.508 243.989,193.656 244.187,193.941 244.363 C 195.066 245.059,195.222 247.611,194.163 248.014 C 193.633 248.215,193.200 248.553,193.200 248.763 C 193.200 248.974,192.856 249.255,192.435 249.389 C 192.014 249.522,190.892 250.435,189.941 251.416 C 188.589 252.811,187.927 253.200,186.906 253.200 C 185.389 253.200,185.007 254.558,186.400 255.000 C 186.841 255.140,187.377 255.584,187.593 255.987 C 188.242 257.200,187.013 257.284,184.550 256.195 C 182.617 255.340,182.354 255.301,182.593 255.904 C 182.744 256.287,182.967 257.230,183.088 258.000 C 183.209 258.770,183.511 259.670,183.759 260.000 C 184.006 260.330,184.549 261.214,184.966 261.965 C 185.818 263.504,188.985 266.694,190.200 267.239 C 190.640 267.437,191.270 267.751,191.600 267.937 C 193.715 269.131,194.000 269.213,194.000 268.627 C 194.000 268.308,193.825 267.939,193.611 267.807 C 193.397 267.674,193.041 266.893,192.819 266.071 C 192.586 265.206,191.640 263.777,190.574 262.680 C 187.130 259.137,189.810 254.438,193.600 257.375 C 193.930 257.630,194.920 258.189,195.800 258.616 C 199.137 260.236,199.447 261.063,197.846 264.075 C 195.009 269.411,197.583 272.060,204.000 270.408 C 204.990 270.153,206.250 269.851,206.800 269.736 C 210.230 269.022,216.865 264.168,217.990 261.551 C 218.214 261.028,218.552 260.330,218.741 260.000 C 219.877 258.013,220.367 255.410,219.775 254.506 C 219.197 253.624,217.600 253.230,217.600 253.969 C 217.600 254.172,217.162 254.860,216.626 255.496 C 216.090 256.133,215.533 257.129,215.387 257.710 C 215.241 258.292,214.869 258.977,214.561 259.233 C 213.916 259.767,213.805 261.832,214.400 262.200 C 214.620 262.336,214.800 262.707,214.800 263.024 C 214.800 263.341,214.620 263.600,214.400 263.600 C 214.180 263.600,214.000 263.330,214.000 263.000 C 214.000 262.009,213.261 262.321,212.606 263.588 C 210.553 267.559,207.605 266.675,207.601 262.086 C 207.599 259.686,206.670 258.400,204.937 258.400 C 203.519 258.400,202.450 257.656,201.645 256.109 C 201.134 255.127,201.968 252.400,202.780 252.400 C 203.011 252.400,203.200 251.674,203.200 250.787 C 203.200 249.723,203.404 249.097,203.800 248.945 C 204.130 248.818,204.400 248.477,204.400 248.186 C 204.400 247.896,204.852 247.302,205.405 246.868 C 206.267 246.189,206.353 245.928,206.009 245.024 C 205.124 242.696,207.850 240.069,210.393 240.798 C 212.170 241.308,212.721 240.776,211.750 239.489 C 210.366 237.654,204.228 235.620,203.831 236.865 M191.100 243.029 C 190.027 243.611,189.544 245.200,190.440 245.200 C 190.836 245.200,193.200 242.938,193.200 242.558 C 193.200 242.223,192.152 242.458,191.100 243.029 " stroke="none" fill="#ffffff" fill-rule="evenodd"/>
    <path id="path2" d="M121.745 12.600 C 121.618 12.930,121.084 13.200,120.557 13.200 C 119.973 13.200,119.600 13.434,119.600 13.800 C 119.600 14.130,119.330 14.400,119.000 14.400 C 118.670 14.400,118.400 14.670,118.400 15.000 C 118.400 15.330,118.217 15.600,117.994 15.600 C 117.463 15.600,111.600 21.463,111.600 21.994 C 111.600 22.217,111.330 22.400,111.000 22.400 C 110.670 22.400,110.400 22.670,110.400 23.000 C 110.400 23.330,110.217 23.600,109.994 23.600 C 109.463 23.600,103.600 29.463,103.600 29.994 C 103.600 30.217,103.330 30.400,103.000 30.400 C 102.670 30.400,102.400 30.670,102.400 31.000 C 102.400 31.330,102.217 31.600,101.994 31.600 C 101.463 31.600,95.600 37.463,95.600 37.994 C 95.600 38.217,95.330 38.400,95.000 38.400 C 94.670 38.400,94.400 38.670,94.400 39.000 C 94.400 39.330,94.217 39.600,93.994 39.600 C 93.463 39.600,87.600 45.463,87.600 45.994 C 87.600 46.217,87.330 46.400,87.000 46.400 C 86.670 46.400,86.400 46.670,86.400 47.000 C 86.400 47.330,86.217 47.600,85.994 47.600 C 85.770 47.600,84.240 48.947,82.594 50.594 C 80.947 52.240,79.600 53.770,79.600 53.994 C 79.600 54.217,79.330 54.400,79.000 54.400 C 78.670 54.400,78.400 54.670,78.400 55.000 C 78.400 55.330,78.217 55.600,77.994 55.600 C 77.770 55.600,76.240 56.947,74.594 58.594 C 72.947 60.240,71.600 61.770,71.600 61.994 C 71.600 62.217,71.330 62.400,71.000 62.400 C 70.670 62.400,70.400 62.670,70.400 63.000 C 70.400 63.330,70.217 63.600,69.994 63.600 C 69.770 63.600,68.240 64.947,66.594 66.594 C 64.947 68.240,63.600 69.770,63.600 69.994 C 63.600 70.217,63.330 70.400,63.000 70.400 C 62.670 70.400,62.400 70.670,62.400 71.000 C 62.400 71.330,62.217 71.600,61.994 71.600 C 61.770 71.600,60.240 72.947,58.594 74.594 C 56.947 76.240,55.600 77.770,55.600 77.994 C 55.600 78.217,55.330 78.400,55.000 78.400 C 54.670 78.400,54.400 78.670,54.400 79.000 C 54.400 79.330,54.217 79.600,53.994 79.600 C 53.770 79.600,52.240 80.947,50.594 82.594 C 48.947 84.240,47.600 85.770,47.600 85.994 C 47.600 86.217,47.330 86.400,47.000 86.400 C 46.670 86.400,46.400 86.670,46.400 87.000 C 46.400 87.330,46.217 87.600,45.994 87.600 C 45.463 87.600,39.600 93.463,39.600 93.994 C 39.600 94.217,39.330 94.400,39.000 94.400 C 38.670 94.400,38.400 94.670,38.400 95.000 C 38.400 95.330,38.217 95.600,37.994 95.600 C 37.463 95.600,31.600 101.463,31.600 101.994 C 31.600 102.217,31.330 102.400,31.000 102.400 C 30.670 102.400,30.400 102.670,30.400 103.000 C 30.400 103.330,30.217 103.600,29.994 103.600 C 29.463 103.600,23.600 109.463,23.600 109.994 C 23.600 110.217,23.330 110.400,23.000 110.400 C 22.670 110.400,22.400 110.670,22.400 111.000 C 22.400 111.330,22.217 111.600,21.994 111.600 C 21.463 111.600,15.600 117.463,15.600 117.994 C 15.600 118.217,15.330 118.400,15.000 118.400 C 14.670 118.400,14.400 118.670,14.400 119.000 C 14.400 119.330,14.130 119.600,13.800 119.600 C 13.434 119.600,13.200 119.973,13.200 120.557 C 13.200 121.084,12.930 121.618,12.600 121.745 C 12.070 121.948,12.000 130.968,12.000 199.587 C 12.000 268.310,12.069 277.200,12.600 277.200 C 12.933 277.200,13.200 277.556,13.200 278.000 C 13.200 278.833,14.506 280.400,15.200 280.400 C 15.420 280.400,15.600 280.580,15.600 280.799 C 15.600 281.351,22.608 288.400,23.156 288.400 C 23.400 288.400,23.600 288.580,23.600 288.799 C 23.600 289.351,30.608 296.400,31.156 296.400 C 31.400 296.400,31.600 296.580,31.600 296.799 C 31.600 297.351,38.608 304.400,39.156 304.400 C 39.400 304.400,39.600 304.580,39.600 304.799 C 39.600 305.351,46.608 312.400,47.156 312.400 C 47.400 312.400,47.600 312.580,47.600 312.799 C 47.600 313.351,54.608 320.400,55.156 320.400 C 55.400 320.400,55.600 320.580,55.600 320.799 C 55.600 321.351,62.608 328.400,63.156 328.400 C 63.400 328.400,63.600 328.580,63.600 328.799 C 63.600 329.351,70.608 336.400,71.156 336.400 C 71.400 336.400,71.600 336.580,71.600 336.799 C 71.600 337.351,78.608 344.400,79.156 344.400 C 79.400 344.400,79.600 344.580,79.600 344.799 C 79.600 345.351,86.608 352.400,87.156 352.400 C 87.400 352.400,87.600 352.580,87.600 352.799 C 87.600 353.351,94.608 360.400,95.156 360.400 C 95.400 360.400,95.600 360.585,95.600 360.811 C 95.600 361.347,102.653 368.400,103.189 368.400 C 103.415 368.400,103.600 368.585,103.600 368.811 C 103.600 369.347,110.653 376.400,111.189 376.400 C 111.415 376.400,111.600 376.580,111.600 376.799 C 111.600 377.351,118.608 384.400,119.156 384.400 C 119.400 384.400,119.600 384.670,119.600 385.000 C 119.600 385.373,119.978 385.600,120.600 385.600 C 121.222 385.600,121.600 385.827,121.600 386.200 C 121.600 386.731,130.511 386.800,199.400 386.800 C 268.289 386.800,277.200 386.731,277.200 386.200 C 277.200 385.867,277.556 385.600,278.000 385.600 C 278.440 385.600,279.798 384.610,281.017 383.400 C 282.237 382.190,283.407 381.200,283.618 381.200 C 283.828 381.200,284.000 380.930,284.000 380.600 C 284.000 380.270,284.270 380.000,284.600 380.000 C 284.930 380.000,285.200 379.829,285.200 379.619 C 285.200 379.123,291.123 373.200,291.619 373.200 C 291.829 373.200,292.000 372.930,292.000 372.600 C 292.000 372.270,292.270 372.000,292.600 372.000 C 292.930 372.000,293.200 371.829,293.200 371.619 C 293.200 371.123,299.123 365.200,299.619 365.200 C 299.829 365.200,300.000 364.930,300.000 364.600 C 300.000 364.270,300.270 364.000,300.600 364.000 C 300.930 364.000,301.200 363.829,301.200 363.619 C 301.200 363.123,307.123 357.200,307.619 357.200 C 307.829 357.200,308.000 356.930,308.000 356.600 C 308.000 356.270,308.270 356.000,308.600 356.000 C 308.930 356.000,309.200 355.829,309.200 355.619 C 309.200 355.123,315.123 349.200,315.619 349.200 C 315.829 349.200,316.000 348.930,316.000 348.600 C 316.000 348.270,316.270 348.000,316.600 348.000 C 316.930 348.000,317.200 347.829,317.200 347.619 C 317.200 347.123,323.123 341.200,323.619 341.200 C 323.829 341.200,324.000 340.930,324.000 340.600 C 324.000 340.270,324.270 340.000,324.600 340.000 C 324.930 340.000,325.200 339.829,325.200 339.619 C 325.200 339.123,331.123 333.200,331.619 333.200 C 331.829 333.200,332.000 332.930,332.000 332.600 C 332.000 332.270,332.270 332.000,332.600 332.000 C 332.930 332.000,333.200 331.829,333.200 331.619 C 333.200 331.123,339.123 325.200,339.619 325.200 C 339.829 325.200,340.000 324.930,340.000 324.600 C 340.000 324.270,340.270 324.000,340.600 324.000 C 340.930 324.000,341.200 323.829,341.200 323.619 C 341.200 323.123,347.123 317.200,347.619 317.200 C 347.829 317.200,348.000 316.930,348.000 316.600 C 348.000 316.270,348.270 316.000,348.600 316.000 C 348.930 316.000,349.200 315.829,349.200 315.619 C 349.200 315.123,355.123 309.200,355.619 309.200 C 355.829 309.200,356.000 308.930,356.000 308.600 C 356.000 308.270,356.270 308.000,356.600 308.000 C 356.930 308.000,357.200 307.829,357.200 307.619 C 357.200 307.410,358.559 305.880,360.219 304.219 C 361.880 302.559,363.410 301.200,363.619 301.200 C 363.829 301.200,364.000 300.930,364.000 300.600 C 364.000 300.270,364.270 300.000,364.600 300.000 C 364.930 300.000,365.200 299.829,365.200 299.619 C 365.200 299.410,366.559 297.880,368.219 296.219 C 369.880 294.559,371.410 293.200,371.619 293.200 C 371.829 293.200,372.000 292.930,372.000 292.600 C 372.000 292.270,372.270 292.000,372.600 292.000 C 372.930 292.000,373.200 291.829,373.200 291.619 C 373.200 291.410,374.559 289.880,376.219 288.219 C 377.880 286.559,379.410 285.200,379.619 285.200 C 379.829 285.200,380.000 284.930,380.000 284.600 C 380.000 284.270,380.270 284.000,380.600 284.000 C 380.930 284.000,381.200 283.828,381.200 283.618 C 381.200 283.407,382.190 282.237,383.400 281.017 C 384.610 279.798,385.600 278.440,385.600 278.000 C 385.600 277.556,385.867 277.200,386.200 277.200 C 386.731 277.200,386.800 268.289,386.800 199.400 C 386.800 130.511,386.731 121.600,386.200 121.600 C 385.827 121.600,385.600 121.222,385.600 120.600 C 385.600 119.978,385.373 119.600,385.000 119.600 C 384.670 119.600,384.400 119.400,384.400 119.156 C 384.400 118.608,377.351 111.600,376.799 111.600 C 376.580 111.600,376.400 111.400,376.400 111.156 C 376.400 110.608,369.351 103.600,368.799 103.600 C 368.580 103.600,368.400 103.400,368.400 103.156 C 368.400 102.608,361.351 95.600,360.799 95.600 C 360.580 95.600,360.400 95.400,360.400 95.156 C 360.400 94.608,353.351 87.600,352.799 87.600 C 352.580 87.600,352.400 87.400,352.400 87.156 C 352.400 86.608,345.351 79.600,344.799 79.600 C 344.580 79.600,344.400 79.400,344.400 79.156 C 344.400 78.608,337.351 71.600,336.799 71.600 C 336.580 71.600,336.400 71.400,336.400 71.156 C 336.400 70.608,329.351 63.600,328.799 63.600 C 328.580 63.600,328.400 63.400,328.400 63.156 C 328.400 62.608,321.351 55.600,320.799 55.600 C 320.580 55.600,320.400 55.400,320.400 55.156 C 320.400 54.608,313.351 47.600,312.799 47.600 C 312.580 47.600,312.400 47.400,312.400 47.156 C 312.400 46.608,305.351 39.600,304.799 39.600 C 304.580 39.600,304.400 39.400,304.400 39.156 C 304.400 38.608,297.351 31.600,296.799 31.600 C 296.580 31.600,296.400 31.400,296.400 31.156 C 296.400 30.608,289.351 23.600,288.799 23.600 C 288.580 23.600,288.400 23.400,288.400 23.156 C 288.400 22.608,281.351 15.600,280.799 15.600 C 280.580 15.600,280.400 15.420,280.400 15.200 C 280.400 14.506,278.833 13.200,278.000 13.200 C 277.556 13.200,277.200 12.933,277.200 12.600 C 277.200 11.687,122.095 11.687,121.745 12.600 M193.690 56.330 C 193.949 56.589,194.509 56.800,194.936 56.800 C 197.436 56.800,204.287 63.093,206.264 67.207 C 207.400 69.569,208.553 70.309,209.055 69.000 C 209.182 68.670,209.590 68.400,209.963 68.400 C 210.335 68.400,210.842 68.198,211.088 67.952 C 212.267 66.773,219.745 66.058,223.200 66.794 C 225.329 67.248,226.889 67.829,229.400 69.101 C 230.845 69.833,235.069 74.052,235.611 75.305 C 235.824 75.797,236.148 76.470,236.332 76.800 C 237.429 78.774,238.000 80.161,238.000 80.852 C 238.000 81.285,238.250 82.126,238.556 82.720 C 238.905 83.399,239.220 85.991,239.404 89.700 C 239.695 95.570,240.241 97.075,241.400 95.200 C 241.536 94.980,241.952 94.799,242.324 94.798 C 242.696 94.796,243.516 94.526,244.146 94.198 C 245.447 93.519,254.584 93.326,254.981 93.969 C 255.106 94.172,255.792 94.466,256.505 94.622 C 261.165 95.643,268.800 104.131,268.800 108.293 C 268.800 108.738,269.070 109.749,269.400 110.538 C 270.170 112.380,270.325 284.375,269.559 286.803 C 269.317 287.571,268.976 288.920,268.802 289.800 C 268.520 291.227,268.205 292.239,267.185 295.000 C 266.402 297.119,262.656 304.400,262.349 304.400 C 262.157 304.400,262.000 304.599,262.000 304.842 C 262.000 305.086,261.417 306.031,260.704 306.942 C 259.990 307.854,259.225 308.845,259.004 309.145 C 254.012 315.880,242.156 323.540,234.800 324.780 C 233.810 324.947,232.493 325.290,231.874 325.542 C 230.034 326.290,175.906 326.147,173.800 325.388 C 172.920 325.071,171.626 324.809,170.924 324.806 C 170.222 324.803,169.545 324.634,169.419 324.431 C 169.294 324.228,168.614 323.935,167.909 323.780 C 167.203 323.625,166.350 323.352,166.013 323.174 C 165.676 322.995,164.050 322.204,162.400 321.415 C 159.456 320.008,156.239 317.949,154.544 316.389 C 153.258 315.205,152.955 315.342,149.435 318.700 C 147.647 320.405,144.862 322.970,143.247 324.400 C 139.424 327.784,130.979 335.775,127.308 339.481 C 124.764 342.049,123.200 343.045,123.200 342.098 C 123.200 341.542,115.827 334.320,110.157 329.323 C 103.932 323.837,104.059 324.170,107.100 321.264 C 108.365 320.055,110.840 317.692,112.600 316.011 C 114.360 314.331,116.297 312.579,116.904 312.117 C 117.512 311.656,121.292 308.132,125.304 304.286 C 129.317 300.440,133.275 296.667,134.100 295.900 C 135.433 294.661,136.142 292.800,135.280 292.800 C 135.105 292.800,134.520 292.085,133.980 291.211 C 133.441 290.337,132.865 289.617,132.700 289.611 C 132.535 289.605,132.400 289.330,132.400 289.000 C 132.400 288.670,132.242 288.400,132.049 288.400 C 131.856 288.400,131.001 287.367,130.149 286.104 C 129.297 284.841,128.106 283.266,127.502 282.604 C 126.898 281.942,126.403 281.190,126.402 280.933 C 126.401 280.677,126.264 280.407,126.097 280.333 C 125.699 280.158,123.200 276.960,123.200 276.626 C 123.200 276.341,123.047 276.144,121.010 273.800 C 120.245 272.920,119.614 271.990,119.609 271.733 C 119.604 271.477,119.464 271.207,119.297 271.133 C 118.780 270.906,116.400 267.710,116.400 267.242 C 116.400 266.999,116.242 266.800,116.049 266.800 C 115.856 266.800,115.001 265.768,114.149 264.506 C 113.297 263.245,112.193 261.760,111.696 261.206 C 111.198 260.653,110.691 259.885,110.569 259.500 C 110.446 259.115,110.178 258.800,109.973 258.800 C 109.768 258.800,109.600 258.530,109.600 258.200 C 109.600 257.870,109.458 257.600,109.285 257.600 C 108.962 257.600,106.000 253.804,106.000 253.389 C 106.000 253.261,105.461 252.581,104.802 251.878 C 104.143 251.175,103.603 250.457,103.602 250.283 C 103.601 250.109,103.244 249.584,102.808 249.117 C 102.373 248.649,101.518 247.532,100.908 246.634 C 100.299 245.735,99.665 244.940,99.500 244.867 C 99.335 244.793,99.200 244.579,99.200 244.391 C 99.200 244.203,98.660 243.458,98.000 242.736 C 97.340 242.013,96.800 241.274,96.800 241.094 C 96.800 240.914,96.444 240.384,96.008 239.917 C 95.573 239.449,94.718 238.332,94.109 237.434 C 93.500 236.535,92.907 235.710,92.791 235.600 C 92.230 235.069,90.000 232.053,90.000 231.825 C 90.000 231.682,89.542 231.078,88.982 230.483 C 88.422 229.887,87.572 228.770,87.095 228.000 C 86.617 227.230,85.858 226.197,85.407 225.705 C 84.956 225.213,84.231 224.133,83.795 223.305 C 83.359 222.477,82.776 221.562,82.501 221.271 C 82.225 220.981,82.000 220.432,82.000 220.051 C 82.000 219.671,81.822 219.182,81.604 218.964 C 81.182 218.542,80.596 216.120,79.970 212.218 C 79.484 209.180,80.525 202.127,81.623 201.020 C 81.830 200.811,82.000 200.338,82.000 199.969 C 82.000 199.600,82.270 199.074,82.600 198.800 C 82.930 198.526,83.200 197.958,83.200 197.538 C 83.200 197.119,83.470 196.671,83.800 196.545 C 84.130 196.418,84.400 196.085,84.400 195.805 C 84.400 195.068,89.846 189.600,90.581 189.600 C 90.921 189.600,91.200 189.436,91.200 189.236 C 91.200 189.035,92.055 188.482,93.100 188.007 C 94.145 187.532,95.335 186.962,95.744 186.740 C 96.520 186.321,99.315 185.736,102.400 185.348 C 108.912 184.529,116.362 188.365,121.800 195.336 C 123.340 197.310,125.453 199.932,126.496 201.163 C 127.539 202.393,128.394 203.520,128.396 203.666 C 128.398 203.813,129.120 204.705,130.000 205.649 C 130.880 206.592,131.600 207.495,131.600 207.654 C 131.600 207.813,131.832 208.181,132.116 208.471 C 132.399 208.762,133.299 209.881,134.116 210.958 L 135.600 212.915 135.624 155.558 C 135.637 124.011,135.803 97.390,135.994 96.400 C 136.830 92.052,139.112 86.400,140.031 86.400 C 140.234 86.400,140.400 86.145,140.400 85.834 C 140.400 85.146,145.121 80.800,145.868 80.800 C 146.161 80.800,146.400 80.655,146.400 80.477 C 146.400 80.299,147.165 79.826,148.100 79.426 C 149.035 79.025,150.413 78.417,151.162 78.074 C 152.125 77.633,153.824 77.444,156.962 77.431 C 161.313 77.413,162.440 77.655,165.295 79.219 C 166.659 79.967,166.999 79.667,167.018 77.700 C 167.038 75.506,167.771 71.224,168.312 70.141 C 168.516 69.733,169.019 68.680,169.430 67.800 C 170.437 65.643,173.131 62.134,175.194 60.292 C 176.964 58.712,181.328 56.455,183.800 55.843 C 185.337 55.462,193.210 55.850,193.690 56.330 M184.000 68.200 C 183.726 68.530,183.289 68.800,183.029 68.800 C 182.238 68.800,180.132 71.289,179.241 73.278 C 178.400 75.156,178.400 75.164,178.400 127.349 C 178.400 174.265,178.336 179.606,177.771 180.171 C 176.779 181.164,168.378 181.080,167.462 180.069 C 166.855 179.398,166.800 175.877,166.800 137.629 C 166.800 99.202,166.746 95.806,166.120 94.460 C 162.867 87.479,152.495 87.208,148.274 93.995 L 147.400 95.400 147.200 163.200 C 146.973 240.036,147.335 232.689,143.696 234.451 C 140.627 235.936,138.147 234.750,134.943 230.268 C 134.130 229.130,133.262 228.020,133.015 227.800 C 132.767 227.580,131.402 225.891,129.982 224.046 C 125.990 218.861,123.213 215.354,119.060 210.253 C 118.367 209.401,117.642 208.431,117.449 208.097 C 117.108 207.506,116.580 206.861,114.306 204.254 C 113.705 203.564,113.210 202.895,113.206 202.767 C 113.162 201.147,107.147 197.231,104.192 196.898 C 100.845 196.521,92.800 201.108,92.800 203.394 C 92.800 203.673,92.549 204.110,92.242 204.365 C 90.237 206.029,90.833 213.612,93.234 216.979 C 93.985 218.033,94.780 219.168,95.000 219.501 C 95.220 219.834,95.895 220.663,96.500 221.343 C 97.105 222.022,97.600 222.726,97.600 222.906 C 97.600 223.086,97.971 223.631,98.425 224.117 C 98.880 224.603,99.878 225.943,100.644 227.095 C 101.410 228.248,102.568 229.773,103.218 230.484 C 103.868 231.196,104.400 231.926,104.400 232.106 C 104.400 232.286,104.582 232.651,104.804 232.917 C 105.027 233.183,105.745 234.030,106.400 234.800 C 107.056 235.570,107.696 236.515,107.823 236.900 C 107.950 237.285,108.179 237.600,108.333 237.600 C 108.486 237.600,109.056 238.320,109.600 239.200 C 110.144 240.080,110.726 240.800,110.894 240.800 C 111.062 240.800,111.200 241.027,111.200 241.304 C 111.200 241.581,111.611 242.256,112.113 242.804 C 112.615 243.352,113.440 244.475,113.946 245.300 C 114.452 246.125,114.994 246.800,115.152 246.800 C 115.309 246.800,116.120 247.870,116.953 249.178 C 117.787 250.486,118.595 251.611,118.750 251.678 C 118.906 251.745,119.607 252.659,120.309 253.709 C 121.010 254.758,121.766 255.838,121.987 256.109 C 123.370 257.795,125.367 260.479,126.525 262.207 C 127.265 263.311,128.132 264.481,128.450 264.807 C 128.769 265.133,129.416 266.030,129.888 266.800 C 130.361 267.570,131.081 268.560,131.490 269.000 C 131.899 269.440,132.810 270.642,133.515 271.670 C 134.220 272.699,135.023 273.783,135.299 274.081 C 135.574 274.378,136.242 275.247,136.782 276.011 C 137.322 276.775,137.907 277.580,138.082 277.800 C 138.256 278.020,139.567 279.820,140.995 281.800 C 143.793 285.678,148.439 290.009,149.776 289.985 C 150.725 289.968,160.800 280.430,160.800 279.549 C 160.800 279.240,160.063 277.730,159.161 276.194 C 158.260 274.657,156.980 272.230,156.318 270.800 C 155.655 269.370,154.954 267.890,154.760 267.511 C 153.270 264.603,152.400 259.133,152.400 252.676 L 152.400 246.072 154.066 240.936 C 156.980 231.951,163.763 222.235,169.591 218.697 C 170.366 218.227,171.090 217.743,171.200 217.621 C 171.816 216.940,175.277 214.778,177.000 213.998 C 178.100 213.501,179.900 212.686,181.000 212.188 C 185.891 209.976,192.190 208.799,199.125 208.804 C 207.847 208.809,215.777 210.637,221.638 213.991 C 222.827 214.672,224.205 215.431,224.700 215.678 C 225.195 215.926,225.600 216.280,225.600 216.464 C 225.600 216.649,225.794 216.800,226.030 216.800 C 227.196 216.800,237.996 226.768,238.002 227.848 C 238.003 228.042,238.503 228.740,239.114 229.400 C 245.302 236.091,248.642 254.590,245.239 263.326 C 244.997 263.945,244.800 264.806,244.800 265.239 C 244.800 266.270,240.771 274.336,238.725 277.400 C 232.901 286.125,216.799 296.400,208.951 296.400 C 208.262 296.400,207.051 296.670,206.262 297.000 C 204.253 297.839,195.070 297.839,193.062 297.000 C 192.272 296.670,191.028 296.400,190.297 296.400 C 187.542 296.400,179.176 293.601,176.600 291.817 C 171.460 288.259,171.095 288.339,164.900 294.369 C 159.352 299.769,159.348 299.779,161.800 302.086 C 163.774 303.944,164.048 305.071,162.800 306.200 C 161.785 307.119,161.796 307.378,162.900 308.413 C 163.841 309.297,169.149 312.000,169.942 312.000 C 170.194 312.000,170.400 312.156,170.400 312.346 C 170.400 312.536,171.237 312.806,172.260 312.946 C 173.282 313.086,174.390 313.426,174.721 313.701 C 175.550 314.389,230.389 314.433,231.239 313.746 C 231.547 313.497,232.430 313.171,233.200 313.023 C 234.755 312.724,235.009 312.625,239.000 310.765 C 244.874 308.028,251.516 301.669,254.211 296.200 C 254.645 295.320,255.135 294.540,255.300 294.467 C 255.465 294.393,255.600 294.061,255.600 293.728 C 255.600 293.396,255.845 292.646,256.145 292.062 C 256.919 290.551,257.577 288.592,258.314 285.600 C 259.301 281.592,259.552 117.641,258.577 113.400 C 257.664 109.424,256.094 106.400,254.944 106.400 C 254.682 106.400,254.392 106.175,254.300 105.900 C 254.007 105.020,246.055 105.231,244.319 106.165 C 239.911 108.536,239.579 111.876,239.607 153.553 C 239.623 176.733,239.508 185.029,239.165 185.442 C 238.602 186.121,230.395 186.239,229.174 185.586 C 228.415 185.180,228.400 184.210,228.400 136.436 C 228.400 94.138,228.321 87.476,227.800 86.000 C 227.470 85.065,227.200 83.872,227.200 83.350 C 227.200 82.827,227.032 82.400,226.827 82.400 C 226.622 82.400,226.334 82.022,226.187 81.561 C 225.243 78.583,219.218 77.050,214.813 78.665 C 212.921 79.359,210.400 81.404,210.400 82.245 C 210.400 82.514,210.175 82.808,209.900 82.900 C 209.505 83.032,209.378 92.611,209.295 128.633 C 209.197 170.740,209.138 174.238,208.518 174.700 C 207.686 175.320,199.501 175.389,198.374 174.786 C 197.615 174.380,197.600 173.397,197.600 124.462 C 197.600 81.198,197.522 74.450,197.013 73.776 C 196.690 73.349,196.420 72.728,196.413 72.396 C 196.344 69.147,186.090 65.681,184.000 68.200 " stroke="none" fill="#ff3535" fill-rule="evenodd"/>
    <path id="path3" d="M183.800 55.843 C 181.328 56.455,176.964 58.712,175.194 60.292 C 173.131 62.134,170.437 65.643,169.430 67.800 C 169.019 68.680,168.516 69.733,168.312 70.141 C 167.771 71.224,167.038 75.506,167.018 77.700 C 166.999 79.667,166.659 79.967,165.295 79.219 C 162.440 77.655,161.313 77.413,156.962 77.431 C 153.824 77.444,152.125 77.633,151.162 78.074 C 150.413 78.417,149.035 79.025,148.100 79.426 C 147.165 79.826,146.400 80.299,146.400 80.477 C 146.400 80.655,146.161 80.800,145.868 80.800 C 145.121 80.800,140.400 85.146,140.400 85.834 C 140.400 86.145,140.234 86.400,140.031 86.400 C 139.112 86.400,136.830 92.052,135.994 96.400 C 135.803 97.390,135.637 124.011,135.624 155.558 L 135.600 212.915 134.116 210.958 C 133.299 209.881,132.399 208.762,132.116 208.471 C 131.832 208.181,131.600 207.813,131.600 207.654 C 131.600 207.495,130.880 206.592,130.000 205.649 C 129.120 204.705,128.398 203.813,128.396 203.666 C 128.394 203.520,127.539 202.393,126.496 201.163 C 125.453 199.932,123.340 197.310,121.800 195.336 C 116.362 188.365,108.912 184.529,102.400 185.348 C 99.315 185.736,96.520 186.321,95.744 186.740 C 95.335 186.962,94.145 187.532,93.100 188.007 C 92.055 188.482,91.200 189.035,91.200 189.236 C 91.200 189.436,90.921 189.600,90.581 189.600 C 89.846 189.600,84.400 195.068,84.400 195.805 C 84.400 196.085,84.130 196.418,83.800 196.545 C 83.470 196.671,83.200 197.119,83.200 197.538 C 83.200 197.958,82.930 198.526,82.600 198.800 C 82.270 199.074,82.000 199.600,82.000 199.969 C 82.000 200.338,81.830 200.811,81.623 201.020 C 80.525 202.127,79.484 209.180,79.970 212.218 C 80.596 216.120,81.182 218.542,81.604 218.964 C 81.822 219.182,82.000 219.671,82.000 220.051 C 82.000 220.432,82.225 220.981,82.501 221.271 C 82.776 221.562,83.359 222.477,83.795 223.305 C 84.231 224.133,84.956 225.213,85.407 225.705 C 85.858 226.197,86.617 227.230,87.095 228.000 C 87.572 228.770,88.422 229.887,88.982 230.483 C 89.542 231.078,90.000 231.682,90.000 231.825 C 90.000 232.053,92.230 235.069,92.791 235.600 C 92.907 235.710,93.500 236.535,94.109 237.434 C 94.718 238.332,95.573 239.449,96.008 239.917 C 96.444 240.384,96.800 240.914,96.800 241.094 C 96.800 241.274,97.340 242.013,98.000 242.736 C 98.660 243.458,99.200 244.203,99.200 244.391 C 99.200 244.579,99.335 244.793,99.500 244.867 C 99.665 244.940,100.299 245.735,100.908 246.634 C 101.518 247.532,102.373 248.649,102.808 249.117 C 103.244 249.584,103.601 250.109,103.602 250.283 C 103.603 250.457,104.143 251.175,104.802 251.878 C 105.461 252.581,106.000 253.261,106.000 253.389 C 106.000 253.804,108.962 257.600,109.285 257.600 C 109.458 257.600,109.600 257.870,109.600 258.200 C 109.600 258.530,109.768 258.800,109.973 258.800 C 110.178 258.800,110.446 259.115,110.569 259.500 C 110.691 259.885,111.198 260.653,111.696 261.206 C 112.193 261.760,113.297 263.245,114.149 264.506 C 115.001 265.768,115.856 266.800,116.049 266.800 C 116.242 266.800,116.400 266.999,116.400 267.242 C 116.400 267.710,118.780 270.906,119.297 271.133 C 119.464 271.207,119.604 271.477,119.609 271.733 C 119.614 271.990,120.245 272.920,121.010 273.800 C 123.047 276.144,123.200 276.341,123.200 276.626 C 123.200 276.960,125.699 280.158,126.097 280.333 C 126.264 280.407,126.401 280.677,126.402 280.933 C 126.403 281.190,126.898 281.942,127.502 282.604 C 128.106 283.266,129.297 284.841,130.149 286.104 C 131.001 287.367,131.856 288.400,132.049 288.400 C 132.242 288.400,132.400 288.670,132.400 289.000 C 132.400 289.330,132.535 289.605,132.700 289.611 C 132.865 289.617,133.441 290.337,133.980 291.211 C 134.520 292.085,135.105 292.800,135.280 292.800 C 135.456 292.800,135.605 293.205,135.612 293.700 C 135.624 294.553,135.648 294.560,136.068 293.836 C 136.409 293.249,136.382 292.968,135.956 292.626 C 135.650 292.382,135.220 291.876,135.000 291.503 C 134.780 291.129,132.623 288.163,130.207 284.912 C 127.791 281.660,123.012 275.220,119.587 270.600 C 107.194 253.882,106.237 252.594,105.912 252.200 C 105.730 251.980,103.605 249.100,101.190 245.800 C 98.774 242.500,93.867 235.840,90.285 231.000 C 86.703 226.160,83.521 221.660,83.214 221.000 C 71.133 195.073,103.678 173.101,121.026 195.472 C 122.530 197.412,123.869 199.090,123.999 199.200 C 124.130 199.310,125.121 200.570,126.200 202.000 C 127.279 203.430,128.268 204.690,128.397 204.800 C 128.526 204.910,129.524 206.170,130.616 207.600 C 131.707 209.030,132.731 210.259,132.892 210.331 C 133.052 210.402,133.580 211.167,134.065 212.031 C 134.647 213.065,135.229 213.600,135.774 213.600 L 136.600 213.600 136.481 156.100 C 136.394 114.244,136.486 97.947,136.818 96.200 C 137.401 93.135,138.417 89.978,139.082 89.169 C 139.367 88.821,139.600 88.332,139.600 88.082 C 139.600 87.180,145.442 81.637,147.606 80.485 C 153.289 77.461,160.967 77.198,165.077 79.888 C 167.181 81.265,167.778 80.562,168.036 76.400 C 168.357 71.232,169.768 67.488,172.897 63.494 C 174.254 61.762,178.473 58.400,179.290 58.400 C 179.592 58.400,180.011 58.240,180.220 58.044 C 181.052 57.265,185.294 56.400,188.262 56.404 C 195.844 56.415,201.560 60.079,205.650 67.551 C 207.158 70.307,208.022 70.743,209.514 69.505 C 211.359 67.974,216.314 67.051,220.920 67.380 C 225.594 67.714,228.844 69.074,231.966 72.000 C 236.482 76.233,238.800 83.039,238.800 92.067 C 238.800 97.046,238.992 97.331,241.485 96.059 C 250.742 91.336,262.844 95.637,266.834 105.068 C 269.811 112.103,269.600 104.968,269.600 198.666 C 269.600 288.034,269.682 283.932,267.754 290.800 C 263.490 305.984,251.987 318.352,237.600 323.221 C 231.112 325.416,228.545 325.592,203.000 325.583 C 170.195 325.572,167.455 324.995,153.975 315.261 C 153.246 314.734,146.978 319.769,146.843 320.990 C 146.819 321.204,148.109 320.079,149.709 318.490 C 152.855 315.365,153.247 315.195,154.544 316.389 C 156.239 317.949,159.456 320.008,162.400 321.415 C 164.050 322.204,165.676 322.995,166.013 323.174 C 166.350 323.352,167.203 323.625,167.909 323.780 C 168.614 323.935,169.294 324.228,169.419 324.431 C 169.545 324.634,170.222 324.803,170.924 324.806 C 171.626 324.809,172.920 325.071,173.800 325.388 C 175.906 326.147,230.034 326.290,231.874 325.542 C 232.493 325.290,233.810 324.947,234.800 324.780 C 242.156 323.540,254.012 315.880,259.004 309.145 C 259.225 308.845,259.990 307.854,260.704 306.942 C 261.417 306.031,262.000 305.086,262.000 304.842 C 262.000 304.599,262.157 304.400,262.349 304.400 C 262.656 304.400,266.402 297.119,267.185 295.000 C 268.205 292.239,268.520 291.227,268.802 289.800 C 268.976 288.920,269.317 287.571,269.559 286.803 C 270.325 284.375,270.170 112.380,269.400 110.538 C 269.070 109.749,268.800 108.738,268.800 108.293 C 268.800 104.131,261.165 95.643,256.505 94.622 C 255.792 94.466,255.106 94.172,254.981 93.969 C 254.584 93.326,245.447 93.519,244.146 94.198 C 243.516 94.526,242.696 94.796,242.324 94.798 C 241.952 94.799,241.536 94.980,241.400 95.200 C 240.241 97.075,239.695 95.570,239.404 89.700 C 239.220 85.991,238.905 83.399,238.556 82.720 C 238.250 82.126,238.000 81.285,238.000 80.852 C 238.000 80.161,237.429 78.774,236.332 76.800 C 236.148 76.470,235.824 75.797,235.611 75.305 C 235.069 74.052,230.845 69.833,229.400 69.101 C 226.889 67.829,225.329 67.248,223.200 66.794 C 219.745 66.058,212.267 66.773,211.088 67.952 C 210.842 68.198,210.335 68.400,209.963 68.400 C 209.590 68.400,209.182 68.670,209.055 69.000 C 208.553 70.309,207.400 69.569,206.264 67.207 C 204.287 63.093,197.436 56.800,194.936 56.800 C 194.509 56.800,193.949 56.589,193.690 56.330 C 193.210 55.850,185.337 55.462,183.800 55.843 M185.036 67.029 C 182.111 68.101,180.136 69.898,178.694 72.800 L 177.800 74.600 177.694 126.786 C 177.633 157.049,177.437 179.123,177.228 179.332 C 176.865 179.695,168.521 179.854,168.172 179.505 C 168.069 179.403,167.990 161.127,167.996 138.893 C 168.008 94.937,168.035 95.494,165.797 92.561 C 160.739 85.930,151.011 87.004,147.422 94.590 L 146.400 96.750 146.400 163.415 C 146.400 235.556,146.517 231.484,144.388 233.411 C 141.418 236.099,138.976 234.533,132.208 225.600 C 131.124 224.170,130.131 222.910,130.000 222.800 C 129.869 222.690,128.913 221.485,127.875 220.123 C 126.837 218.760,125.760 217.410,125.481 217.123 C 125.203 216.835,124.089 215.430,123.006 214.000 C 121.923 212.570,120.934 211.310,120.807 211.200 C 120.681 211.090,118.962 208.930,116.989 206.400 C 110.422 197.983,108.257 196.400,103.311 196.400 C 96.553 196.400,90.400 202.691,90.400 209.600 C 90.400 212.421,91.363 216.400,92.046 216.400 C 92.241 216.400,92.400 216.573,92.400 216.785 C 92.400 217.115,98.046 224.842,114.182 246.600 C 120.224 254.746,126.284 262.951,132.351 271.200 C 135.668 275.710,138.674 279.760,139.030 280.200 C 139.387 280.640,140.156 281.711,140.739 282.581 C 141.323 283.450,142.205 284.601,142.700 285.139 C 143.195 285.677,143.600 286.271,143.600 286.458 C 143.600 286.646,143.857 286.800,144.172 286.800 C 144.631 286.800,142.152 283.145,138.070 277.800 C 137.902 277.580,137.322 276.775,136.782 276.011 C 136.242 275.247,135.574 274.378,135.299 274.081 C 135.023 273.783,134.220 272.699,133.515 271.670 C 132.810 270.642,131.899 269.440,131.490 269.000 C 131.081 268.560,130.361 267.570,129.888 266.800 C 129.416 266.030,128.769 265.133,128.450 264.807 C 128.132 264.481,127.265 263.311,126.525 262.207 C 125.367 260.479,123.370 257.795,121.987 256.109 C 121.766 255.838,121.010 254.758,120.309 253.709 C 119.607 252.659,118.906 251.745,118.750 251.678 C 118.595 251.611,117.787 250.486,116.953 249.178 C 116.120 247.870,115.309 246.800,115.152 246.800 C 114.994 246.800,114.452 246.125,113.946 245.300 C 113.440 244.475,112.615 243.352,112.113 242.804 C 111.611 242.256,111.200 241.581,111.200 241.304 C 111.200 241.027,111.062 240.800,110.894 240.800 C 110.726 240.800,110.144 240.080,109.600 239.200 C 109.056 238.320,108.486 237.600,108.333 237.600 C 108.179 237.600,107.950 237.285,107.823 236.900 C 107.696 236.515,107.056 235.570,106.400 234.800 C 105.745 234.030,105.027 233.183,104.804 232.917 C 104.582 232.651,104.400 232.286,104.400 232.106 C 104.400 231.926,103.868 231.196,103.218 230.484 C 102.568 229.773,101.410 228.248,100.644 227.095 C 99.878 225.943,98.880 224.603,98.425 224.117 C 97.971 223.631,97.600 223.086,97.600 222.906 C 97.600 222.726,97.105 222.022,96.500 221.343 C 95.895 220.663,95.220 219.834,95.000 219.501 C 94.780 219.168,93.985 218.033,93.234 216.979 C 90.833 213.612,90.237 206.029,92.242 204.365 C 92.549 204.110,92.800 203.673,92.800 203.394 C 92.800 201.108,100.845 196.521,104.192 196.898 C 107.147 197.231,113.162 201.147,113.206 202.767 C 113.210 202.895,113.705 203.564,114.306 204.254 C 116.580 206.861,117.108 207.506,117.449 208.097 C 117.642 208.431,118.367 209.401,119.060 210.253 C 123.213 215.354,125.990 218.861,129.982 224.046 C 131.402 225.891,132.767 227.580,133.015 227.800 C 133.262 228.020,134.130 229.130,134.943 230.268 C 138.147 234.750,140.627 235.936,143.696 234.451 C 147.335 232.689,146.973 240.036,147.200 163.200 L 147.400 95.400 148.274 93.995 C 152.495 87.208,162.867 87.479,166.120 94.460 C 166.746 95.806,166.800 99.206,166.800 137.698 C 166.800 177.664,166.832 179.505,167.531 180.138 C 168.574 181.081,176.834 181.108,177.771 180.171 C 178.336 179.606,178.400 174.265,178.400 127.349 C 178.400 75.164,178.400 75.156,179.241 73.278 C 180.132 71.289,182.238 68.800,183.029 68.800 C 183.289 68.800,183.726 68.530,184.000 68.200 C 186.090 65.681,196.344 69.147,196.413 72.396 C 196.420 72.728,196.690 73.349,197.013 73.776 C 197.522 74.450,197.600 81.198,197.600 124.462 C 197.600 173.397,197.615 174.380,198.374 174.786 C 199.501 175.389,207.686 175.320,208.518 174.700 C 209.138 174.238,209.197 170.740,209.295 128.633 C 209.378 92.611,209.505 83.032,209.900 82.900 C 210.175 82.808,210.400 82.514,210.400 82.245 C 210.400 81.404,212.921 79.359,214.813 78.665 C 219.218 77.050,225.243 78.583,226.187 81.561 C 226.334 82.022,226.622 82.400,226.827 82.400 C 227.032 82.400,227.200 82.827,227.200 83.350 C 227.200 83.872,227.470 85.065,227.800 86.000 C 228.321 87.476,228.400 94.138,228.400 136.436 C 228.400 184.210,228.415 185.180,229.174 185.586 C 230.395 186.239,238.602 186.121,239.165 185.442 C 239.508 185.029,239.623 176.733,239.607 153.553 C 239.579 111.876,239.911 108.536,244.319 106.165 C 246.055 105.231,254.007 105.020,254.300 105.900 C 254.392 106.175,254.682 106.400,254.944 106.400 C 256.094 106.400,257.664 109.424,258.577 113.400 C 259.552 117.641,259.301 281.592,258.314 285.600 C 257.577 288.592,256.919 290.551,256.145 292.062 C 255.845 292.646,255.600 293.396,255.600 293.728 C 255.600 294.061,255.465 294.393,255.300 294.467 C 255.135 294.540,254.645 295.320,254.211 296.200 C 251.516 301.669,244.874 308.028,239.000 310.765 C 235.009 312.625,234.755 312.724,233.200 313.023 C 232.430 313.171,231.547 313.497,231.239 313.746 C 230.389 314.433,175.550 314.389,174.721 313.701 C 174.390 313.426,173.282 313.086,172.260 312.946 C 171.237 312.806,170.400 312.536,170.400 312.346 C 170.400 312.156,170.194 312.000,169.942 312.000 C 169.149 312.000,163.841 309.297,162.900 308.413 C 161.796 307.378,161.785 307.119,162.800 306.200 C 163.240 305.802,163.600 305.342,163.600 305.178 C 163.600 305.013,163.060 305.383,162.400 306.000 C 160.706 307.583,160.858 307.985,163.882 309.904 C 171.678 314.850,174.172 315.186,203.000 315.185 C 231.683 315.184,236.838 314.419,243.326 309.202 C 247.489 305.854,248.822 304.655,250.000 303.199 C 250.770 302.247,251.589 301.273,251.819 301.034 C 254.288 298.476,257.479 291.760,259.058 285.800 C 260.256 281.277,260.210 115.443,259.009 111.800 C 257.132 106.102,255.224 104.611,249.800 104.605 C 244.401 104.598,242.649 105.522,240.859 109.324 C 239.085 113.091,239.069 113.407,238.830 150.000 L 238.600 185.000 234.800 185.117 C 232.710 185.182,230.602 185.135,230.115 185.013 L 229.230 184.792 229.115 135.696 C 228.990 82.416,229.110 85.378,226.930 81.445 C 224.192 76.505,214.464 75.881,210.660 80.401 C 208.102 83.442,208.213 81.290,208.092 130.100 L 207.983 174.400 203.392 174.400 C 200.866 174.400,198.758 174.355,198.707 174.300 C 198.656 174.245,198.521 151.700,198.407 124.200 L 198.200 74.200 197.329 72.600 C 196.330 70.762,194.245 68.400,193.623 68.400 C 193.390 68.400,193.200 68.253,193.200 68.073 C 193.200 66.870,187.471 66.137,185.036 67.029 M191.000 209.273 C 184.624 210.827,182.814 211.353,181.027 212.168 C 179.912 212.677,178.100 213.501,177.000 213.998 C 175.277 214.778,171.816 216.940,171.200 217.621 C 171.090 217.743,170.366 218.227,169.591 218.697 C 163.763 222.235,156.980 231.951,154.066 240.936 L 152.400 246.072 152.400 252.676 C 152.400 259.127,153.263 264.564,154.756 267.511 C 154.948 267.890,155.511 269.100,156.007 270.200 C 156.503 271.300,157.800 273.764,158.890 275.675 C 161.117 279.583,161.123 280.082,158.967 281.975 C 158.200 282.649,157.722 283.200,157.905 283.200 C 159.915 283.200,161.763 278.841,160.468 277.154 C 158.215 274.216,154.642 266.511,153.999 263.200 C 153.807 262.210,153.440 260.525,153.183 259.456 C 152.623 257.125,152.846 245.890,153.481 244.400 C 153.716 243.850,154.315 242.050,154.812 240.400 C 158.115 229.446,166.972 219.332,177.698 214.267 C 181.862 212.301,184.510 211.200,185.075 211.200 C 185.391 211.200,186.494 210.946,187.525 210.636 C 192.322 209.195,199.872 208.878,208.200 209.768 L 210.200 209.982 207.800 209.417 C 205.008 208.759,193.510 208.661,191.000 209.273 M214.600 211.558 C 223.780 214.716,233.202 221.599,238.058 228.695 C 238.775 229.743,239.596 230.838,239.881 231.129 C 240.166 231.419,240.400 231.814,240.400 232.006 C 240.400 232.510,242.069 235.264,242.260 235.074 C 242.548 234.785,240.239 230.630,239.108 229.400 C 238.500 228.740,238.003 228.042,238.002 227.848 C 237.996 226.768,227.196 216.800,226.030 216.800 C 225.794 216.800,225.600 216.649,225.600 216.464 C 225.600 216.280,225.195 215.926,224.700 215.678 C 224.205 215.431,222.827 214.672,221.638 213.991 C 220.448 213.310,218.738 212.487,217.838 212.161 C 214.508 210.958,211.383 210.011,210.800 210.028 C 210.470 210.037,212.180 210.726,214.600 211.558 M242.404 236.211 C 242.402 236.657,242.655 237.386,242.967 237.831 C 243.533 238.640,244.520 241.807,245.263 245.200 C 246.686 251.703,245.539 263.505,243.008 268.400 C 242.723 268.950,241.931 270.526,241.247 271.903 C 239.490 275.438,239.202 275.918,237.349 278.394 C 235.362 281.050,230.411 285.941,228.201 287.431 C 227.322 288.025,226.045 288.935,225.364 289.455 C 224.682 289.975,223.939 290.400,223.711 290.400 C 223.484 290.400,223.074 290.670,222.800 291.000 C 220.594 293.658,229.173 287.529,233.382 283.439 C 238.237 278.723,244.800 268.261,244.800 265.239 C 244.800 264.806,244.997 263.945,245.239 263.326 C 247.004 258.794,247.191 250.384,245.660 244.400 C 244.499 239.866,242.412 234.615,242.404 236.211 M153.791 286.885 C 150.262 290.517,150.732 290.253,154.958 286.227 C 156.475 284.782,157.551 283.600,157.349 283.600 C 157.147 283.600,155.545 285.078,153.791 286.885 M170.000 289.201 L 169.000 289.984 170.304 289.503 C 171.680 288.995,173.479 289.656,176.600 291.817 C 178.824 293.357,187.644 296.453,189.584 296.375 C 189.923 296.362,189.300 296.068,188.200 295.722 C 181.919 293.747,178.889 292.601,177.203 291.564 C 176.163 290.924,175.187 290.400,175.035 290.400 C 174.882 290.400,174.095 289.950,173.286 289.400 C 171.526 288.204,171.291 288.190,170.000 289.201 M148.176 289.813 C 148.604 290.136,149.324 290.379,149.776 290.354 C 150.580 290.308,150.580 290.303,149.800 290.115 C 149.360 290.009,148.829 289.760,148.620 289.561 C 148.411 289.363,148.051 289.206,147.820 289.213 C 147.589 289.220,147.749 289.490,148.176 289.813 M166.187 292.900 L 163.800 295.400 166.300 293.013 C 168.622 290.795,168.983 290.400,168.687 290.400 C 168.626 290.400,167.501 291.525,166.187 292.900 M219.200 292.627 C 217.584 293.452,211.040 295.704,209.000 296.137 C 208.364 296.272,208.405 296.317,209.202 296.354 C 211.032 296.438,222.000 292.496,222.000 291.753 C 222.000 291.415,220.907 291.756,219.200 292.627 M160.878 297.719 C 159.162 299.490,159.255 300.092,161.600 302.400 C 162.700 303.483,163.600 304.236,163.600 304.074 C 163.600 303.913,162.790 303.018,161.800 302.086 C 159.926 300.323,159.658 299.627,160.500 298.716 C 162.732 296.301,163.040 295.489,160.878 297.719 M193.146 296.979 C 194.988 297.829,204.450 297.831,206.200 296.982 L 207.400 296.399 205.800 296.700 C 203.707 297.092,194.994 297.073,193.200 296.671 L 191.800 296.358 193.146 296.979 M131.200 298.600 C 130.228 299.590,129.523 300.400,129.633 300.400 C 129.743 300.400,130.628 299.590,131.600 298.600 C 132.572 297.610,133.277 296.800,133.167 296.800 C 133.057 296.800,132.172 297.610,131.200 298.600 M112.783 315.900 L 111.000 317.800 112.993 316.000 C 114.088 315.010,115.063 314.155,115.159 314.100 C 115.255 314.045,115.161 314.000,114.950 314.000 C 114.739 314.000,113.764 314.855,112.783 315.900 M106.247 322.001 C 104.327 324.126,104.298 324.021,107.618 326.998 C 109.236 328.449,109.207 328.393,107.300 326.385 C 104.787 323.740,104.809 323.925,106.784 321.969 C 107.656 321.106,108.217 320.400,108.031 320.400 C 107.845 320.400,107.042 321.121,106.247 322.001 M144.181 323.300 L 142.600 325.000 144.300 323.419 C 145.881 321.948,146.184 321.600,145.881 321.600 C 145.816 321.600,145.051 322.365,144.181 323.300 M131.785 334.900 L 129.800 337.000 131.900 335.015 C 133.055 333.923,134.000 332.978,134.000 332.915 C 134.000 332.617,133.629 332.949,131.785 334.900 M118.000 336.525 C 118.000 336.594,118.585 337.179,119.300 337.825 L 120.600 339.000 119.425 337.700 C 118.330 336.488,118.000 336.216,118.000 336.525 M122.426 341.078 C 123.459 342.433,124.333 342.707,125.120 341.920 C 125.941 341.099,125.646 340.635,124.793 341.406 C 124.007 342.118,123.954 342.107,122.719 340.968 L 121.451 339.800 122.426 341.078 " stroke="none" fill="#f15d63" fill-rule="evenodd"/>
    <path id="path4" d="M191.400 209.680 C 190.300 209.898,188.556 210.329,187.525 210.638 C 186.494 210.947,185.391 211.200,185.075 211.200 C 184.510 211.200,181.862 212.301,177.698 214.267 C 166.972 219.332,158.115 229.446,154.812 240.400 C 154.315 242.050,153.716 243.850,153.481 244.400 C 152.846 245.890,152.623 257.125,153.183 259.456 C 153.440 260.525,153.807 262.210,153.999 263.200 C 154.642 266.511,158.215 274.216,160.468 277.154 C 161.988 279.136,161.570 279.911,156.247 284.979 C 149.455 291.446,149.777 291.320,146.979 288.600 C 144.900 286.580,143.988 286.391,142.630 287.700 C 142.117 288.195,138.750 291.480,135.148 295.000 C 131.547 298.520,125.810 304.006,122.400 307.191 C 109.265 319.458,105.200 323.407,105.200 323.898 C 105.200 324.109,106.695 325.703,108.523 327.441 C 117.761 336.225,123.724 341.811,123.963 341.905 C 124.109 341.962,125.302 340.995,126.614 339.755 C 132.580 334.116,134.566 332.248,139.972 327.195 C 143.147 324.228,147.241 320.378,149.069 318.640 C 150.897 316.902,152.800 315.199,153.297 314.855 C 153.794 314.512,155.606 312.874,157.325 311.215 C 159.043 309.557,160.618 308.140,160.825 308.067 C 161.031 307.993,161.200 307.685,161.200 307.381 C 161.200 307.077,161.556 306.638,161.991 306.405 C 163.849 305.410,163.766 304.533,161.615 302.414 C 159.161 299.999,159.118 299.322,161.300 297.380 C 162.235 296.549,164.757 294.188,166.904 292.134 C 171.240 287.987,171.219 287.996,173.286 289.400 C 174.095 289.950,174.882 290.400,175.035 290.400 C 175.187 290.400,176.141 290.908,177.156 291.528 C 179.930 293.226,187.555 295.789,192.000 296.520 C 201.448 298.071,215.327 295.630,222.400 291.173 C 222.730 290.965,223.270 290.679,223.600 290.538 C 223.930 290.397,224.741 289.883,225.401 289.396 C 226.062 288.909,227.322 288.025,228.201 287.431 C 230.411 285.941,235.362 281.050,237.349 278.394 C 239.202 275.918,239.490 275.438,241.247 271.903 C 241.931 270.526,242.723 268.950,243.008 268.400 C 245.539 263.505,246.686 251.703,245.263 245.200 C 244.520 241.807,243.533 238.640,242.967 237.831 C 242.655 237.386,242.400 236.698,242.400 236.303 C 242.400 235.908,241.950 234.871,241.400 234.000 C 240.850 233.129,240.400 232.245,240.400 232.037 C 240.400 231.828,240.166 231.419,239.881 231.129 C 239.596 230.838,238.775 229.743,238.058 228.695 C 232.057 219.925,219.100 211.666,208.600 209.918 C 205.253 209.360,193.814 209.202,191.400 209.680 M209.736 211.197 C 211.531 211.623,214.530 212.533,216.400 213.219 C 218.270 213.905,220.160 214.566,220.600 214.688 C 221.040 214.811,221.760 215.229,222.200 215.618 C 222.640 216.007,224.350 217.223,226.000 218.320 C 229.260 220.487,234.929 225.761,236.406 228.000 C 236.913 228.770,237.747 229.857,238.257 230.414 C 239.364 231.624,241.600 236.115,241.600 237.129 C 241.600 237.522,242.050 238.455,242.600 239.200 C 243.150 239.945,243.603 241.105,243.606 241.778 C 243.609 242.450,243.871 243.720,244.188 244.600 C 244.851 246.439,244.993 257.391,244.394 260.400 C 244.196 261.390,243.854 263.168,243.633 264.351 C 243.413 265.534,242.973 266.794,242.656 267.151 C 242.339 267.508,241.619 268.903,241.056 270.250 C 239.905 273.003,238.646 275.292,237.424 276.850 C 236.971 277.427,236.277 278.349,235.883 278.898 C 233.533 282.170,226.464 288.024,222.519 289.965 C 221.024 290.701,219.530 291.528,219.200 291.804 C 218.870 292.080,218.150 292.428,217.600 292.578 C 217.050 292.728,216.240 293.010,215.800 293.206 C 210.794 295.429,198.276 296.517,191.600 295.308 C 187.484 294.563,183.471 293.590,183.017 293.226 C 182.788 293.043,181.970 292.762,181.200 292.602 C 180.430 292.442,179.530 292.083,179.200 291.804 C 178.034 290.820,172.926 288.117,171.838 287.909 C 170.684 287.689,169.789 288.324,165.014 292.757 C 157.985 299.281,157.810 299.662,160.600 302.400 C 161.590 303.372,162.400 304.365,162.400 304.607 C 162.400 305.144,154.387 313.093,150.800 316.114 C 149.370 317.319,147.818 318.731,147.352 319.252 C 146.885 319.773,144.817 321.730,142.755 323.600 C 136.936 328.879,134.177 331.459,129.518 335.981 C 123.762 341.568,124.431 341.397,121.094 338.145 C 117.310 334.458,110.023 327.675,107.108 325.126 C 105.625 323.829,106.306 323.020,117.155 313.199 C 119.221 311.330,121.741 309.009,122.755 308.043 C 130.622 300.552,133.259 298.013,138.000 293.366 C 144.208 287.282,144.156 287.307,146.552 289.302 C 149.961 292.139,149.636 292.241,155.878 286.375 C 163.131 279.560,162.982 279.923,160.375 275.400 C 157.440 270.309,156.143 267.308,154.498 261.800 C 153.104 257.133,153.761 245.374,155.667 240.867 C 156.070 239.914,156.400 238.803,156.400 238.400 C 156.400 233.580,172.028 216.000,176.313 216.000 C 176.527 216.000,176.926 215.730,177.200 215.400 C 177.474 215.070,177.933 214.800,178.220 214.800 C 178.507 214.800,180.105 214.170,181.772 213.400 C 183.439 212.630,185.130 212.000,185.529 212.000 C 185.928 212.000,187.232 211.702,188.427 211.339 C 193.357 209.839,203.712 209.770,209.736 211.197 M191.742 218.210 C 163.665 223.348,152.006 255.902,170.948 276.268 C 187.011 293.539,214.979 292.584,229.544 274.268 C 250.248 248.234,225.798 211.977,191.742 218.210 M205.600 218.793 C 229.261 222.225,243.129 247.382,232.685 267.930 C 222.491 287.988,194.503 294.132,176.488 280.267 C 146.880 257.481,167.798 213.310,205.600 218.793 M194.825 228.467 C 187.803 229.470,177.869 236.109,180.080 238.320 C 180.886 239.126,181.452 238.884,184.029 236.637 C 191.909 229.764,202.479 229.031,213.652 234.583 C 217.651 236.570,218.075 236.674,218.774 235.831 C 219.551 234.896,218.524 233.797,215.421 232.242 C 208.455 228.752,201.611 227.497,194.825 228.467 M195.000 234.753 C 193.680 235.159,191.970 235.874,191.200 236.342 C 190.430 236.810,189.538 237.318,189.217 237.471 C 188.448 237.838,186.875 239.171,185.835 240.336 C 185.376 240.851,184.508 241.825,183.906 242.501 C 183.305 243.177,182.696 244.106,182.552 244.565 C 182.409 245.024,182.177 245.490,182.035 245.600 C 180.544 246.761,179.858 255.921,181.055 258.686 C 181.416 259.519,181.907 260.650,182.146 261.200 C 190.388 280.125,222.000 273.887,222.000 253.335 C 222.000 247.656,220.892 244.956,216.538 240.028 C 212.200 235.119,201.958 232.611,195.000 234.753 M204.400 234.800 C 204.815 235.069,204.843 235.190,204.490 235.194 C 204.210 235.197,203.801 235.695,203.582 236.300 C 202.196 240.128,201.111 242.007,200.148 242.249 C 199.645 242.375,199.023 242.731,198.767 243.039 C 197.916 244.065,197.077 243.731,197.416 242.500 C 197.582 241.895,197.755 240.390,197.801 239.156 L 197.883 236.912 195.642 236.883 C 193.170 236.852,192.695 237.101,191.036 239.300 C 189.686 241.091,190.486 241.424,192.238 239.800 C 193.478 238.650,193.408 238.669,194.426 239.214 C 194.963 239.501,195.200 240.053,195.200 241.014 C 195.200 242.519,194.621 242.889,194.284 241.600 C 194.045 240.687,192.400 240.478,192.400 241.361 C 192.400 241.669,191.874 242.105,191.231 242.329 C 189.792 242.831,189.179 243.894,189.634 245.100 C 190.078 246.274,190.951 246.242,191.915 245.018 L 192.687 244.035 193.544 244.833 C 194.853 246.053,194.656 246.437,191.033 249.735 C 188.365 252.164,187.410 252.800,186.433 252.800 C 185.335 252.800,185.200 252.929,185.200 253.976 C 185.200 255.604,184.671 255.776,183.277 254.603 C 181.998 253.527,181.600 253.791,181.600 255.713 C 181.600 256.323,181.478 256.438,181.165 256.125 C 180.086 255.046,181.268 248.141,183.100 244.835 C 184.120 242.992,187.718 238.800,188.278 238.800 C 188.414 238.800,189.114 238.350,189.836 237.800 C 190.557 237.250,191.594 236.800,192.140 236.800 C 192.686 236.800,193.206 236.581,193.296 236.313 C 193.708 235.077,202.892 233.825,204.400 234.800 M209.000 236.000 C 209.144 236.233,208.745 236.400,208.047 236.400 C 207.387 236.400,206.736 236.220,206.600 236.000 C 206.456 235.767,206.855 235.600,207.553 235.600 C 208.213 235.600,208.864 235.780,209.000 236.000 M209.205 237.694 C 212.449 239.157,213.408 241.663,210.393 240.798 C 207.850 240.069,205.124 242.696,206.009 245.024 C 206.353 245.928,206.267 246.189,205.405 246.868 C 204.852 247.302,204.400 247.896,204.400 248.186 C 204.400 248.477,204.130 248.818,203.800 248.945 C 203.404 249.097,203.200 249.723,203.200 250.787 C 203.200 251.674,203.011 252.400,202.780 252.400 C 201.968 252.400,201.134 255.127,201.645 256.109 C 202.450 257.656,203.519 258.400,204.937 258.400 C 206.670 258.400,207.599 259.686,207.601 262.086 C 207.605 266.675,210.553 267.559,212.606 263.588 C 213.261 262.321,214.000 262.009,214.000 263.000 C 214.000 263.330,214.180 263.600,214.400 263.600 C 214.620 263.600,214.800 263.341,214.800 263.024 C 214.800 262.707,214.620 262.336,214.400 262.200 C 213.805 261.832,213.916 259.767,214.561 259.233 C 214.869 258.977,215.241 258.292,215.387 257.710 C 215.533 257.129,216.090 256.133,216.626 255.496 C 217.162 254.860,217.600 254.172,217.600 253.969 C 217.600 253.230,219.197 253.624,219.775 254.506 C 220.367 255.410,219.877 258.013,218.741 260.000 C 218.552 260.330,218.214 261.028,217.990 261.551 C 216.865 264.168,210.230 269.022,206.800 269.736 C 206.250 269.851,204.990 270.153,204.000 270.408 C 197.583 272.060,195.009 269.411,197.846 264.075 C 199.447 261.063,199.137 260.236,195.800 258.616 C 194.920 258.189,193.930 257.630,193.600 257.375 C 189.810 254.438,187.130 259.137,190.574 262.680 C 191.640 263.777,192.586 265.206,192.819 266.071 C 193.041 266.893,193.397 267.674,193.611 267.807 C 193.825 267.939,194.000 268.308,194.000 268.627 C 194.000 269.213,193.715 269.131,191.600 267.937 C 191.270 267.751,190.640 267.437,190.200 267.239 C 188.985 266.694,185.818 263.504,184.966 261.965 C 184.549 261.214,184.006 260.330,183.759 260.000 C 183.511 259.670,183.209 258.770,183.088 258.000 C 182.967 257.230,182.744 256.287,182.593 255.904 C 182.354 255.301,182.617 255.340,184.550 256.195 C 187.013 257.284,188.242 257.200,187.593 255.987 C 187.377 255.584,186.841 255.140,186.400 255.000 C 185.007 254.558,185.389 253.200,186.906 253.200 C 187.927 253.200,188.589 252.811,189.941 251.416 C 190.892 250.435,192.014 249.522,192.435 249.389 C 192.856 249.255,193.200 248.974,193.200 248.763 C 193.200 248.553,193.633 248.215,194.163 248.014 C 195.222 247.611,195.066 245.059,193.941 244.363 C 193.656 244.187,193.508 243.989,193.612 243.922 C 193.715 243.855,194.160 243.602,194.600 243.359 C 196.669 242.220,195.622 238.430,193.224 238.377 C 192.315 238.357,192.357 238.300,193.600 237.868 C 194.370 237.600,195.060 237.520,195.133 237.690 C 195.207 237.861,195.616 238.000,196.042 238.000 C 197.336 238.000,197.864 239.758,197.069 241.424 C 195.758 244.174,196.663 245.110,199.111 243.537 C 199.930 243.011,200.937 242.400,201.349 242.179 C 201.969 241.846,202.837 239.990,203.831 236.865 C 204.054 236.165,206.728 236.577,209.205 237.694 M212.439 237.468 C 217.550 239.978,221.600 247.148,221.600 253.690 C 221.600 255.594,221.420 257.264,221.200 257.400 C 220.963 257.546,220.800 257.089,220.800 256.278 C 220.800 254.418,219.484 252.800,217.971 252.800 C 217.022 252.800,216.800 252.971,216.800 253.704 C 216.800 254.201,216.449 254.827,216.020 255.095 C 215.591 255.363,215.121 256.216,214.975 256.991 C 214.830 257.766,214.565 258.400,214.387 258.400 C 214.208 258.400,213.843 259.075,213.574 259.900 C 211.525 266.202,208.000 267.297,208.000 261.632 C 208.000 259.122,206.886 257.600,205.047 257.600 C 202.490 257.600,201.552 255.847,202.800 253.400 C 203.240 252.537,203.600 251.411,203.600 250.899 C 203.600 250.386,203.782 249.749,204.004 249.483 C 204.227 249.217,204.780 248.505,205.233 247.900 C 205.687 247.295,206.321 246.800,206.643 246.800 C 207.738 246.800,209.200 245.529,209.200 244.578 C 209.200 243.228,208.478 242.991,207.943 244.165 C 207.415 245.324,206.796 245.166,206.809 243.876 C 206.832 241.578,208.448 240.840,211.400 241.780 C 213.780 242.537,212.834 238.736,210.290 237.323 C 208.824 236.508,210.749 236.639,212.439 237.468 M193.200 242.558 C 193.200 242.938,190.836 245.200,190.440 245.200 C 189.544 245.200,190.027 243.611,191.100 243.029 C 192.152 242.458,193.200 242.223,193.200 242.558 M205.867 249.467 C 205.311 250.022,205.614 251.200,206.311 251.200 C 206.702 251.200,207.387 251.456,207.833 251.768 C 209.132 252.678,211.373 252.394,211.528 251.300 C 211.639 250.519,211.477 250.400,210.304 250.400 C 209.561 250.400,208.604 250.136,208.176 249.813 C 207.348 249.186,206.304 249.030,205.867 249.467 M194.642 258.636 C 198.386 260.588,198.641 261.132,197.237 264.156 C 194.860 269.274,194.925 268.889,196.218 270.182 C 197.175 271.139,197.505 271.205,201.718 271.284 L 206.200 271.369 202.000 271.512 C 196.587 271.696,191.481 270.600,194.011 269.797 C 194.901 269.514,194.809 268.547,193.746 267.011 C 193.446 266.577,193.200 265.835,193.200 265.361 C 193.200 264.866,192.435 263.759,191.400 262.756 C 189.843 261.248,189.600 260.790,189.600 259.373 C 189.600 256.655,190.569 256.513,194.642 258.636 M182.800 259.181 C 182.800 259.819,183.062 260.415,183.400 260.545 C 183.730 260.671,184.000 261.146,184.000 261.600 C 184.000 262.054,184.270 262.529,184.600 262.655 C 184.930 262.782,185.200 263.038,185.200 263.224 C 185.200 263.708,188.981 267.424,189.861 267.804 C 190.566 268.109,190.564 268.132,189.815 268.308 C 189.384 268.409,188.964 268.291,188.882 268.046 C 188.800 267.801,188.505 267.600,188.226 267.600 C 187.553 267.600,183.234 262.450,182.942 261.300 C 182.816 260.805,182.574 260.400,182.403 260.400 C 181.977 260.400,181.607 258.848,181.869 258.164 C 182.207 257.283,182.800 257.931,182.800 259.181 M220.032 260.723 C 219.794 260.802,219.600 261.152,219.600 261.500 C 219.600 262.225,219.384 262.491,216.026 265.900 C 213.972 267.986,211.304 269.451,212.200 268.000 C 212.336 267.780,212.797 267.600,213.224 267.600 C 213.651 267.600,214.000 267.330,214.000 267.000 C 214.000 266.670,214.270 266.400,214.600 266.400 C 214.930 266.400,215.202 266.265,215.205 266.100 C 215.208 265.935,215.928 265.027,216.805 264.083 C 217.682 263.138,218.400 262.097,218.400 261.770 C 218.400 261.443,218.670 261.071,219.000 260.945 C 219.330 260.818,219.600 260.224,219.600 259.624 C 219.600 258.008,220.179 257.713,220.332 259.251 C 220.405 259.981,220.270 260.643,220.032 260.723 M192.400 269.200 C 192.400 269.420,192.051 269.600,191.624 269.600 C 191.197 269.600,190.736 269.420,190.600 269.200 C 190.460 268.973,190.796 268.800,191.376 268.800 C 191.939 268.800,192.400 268.980,192.400 269.200 M211.800 269.200 C 211.664 269.420,211.193 269.600,210.753 269.600 C 210.313 269.600,210.064 269.420,210.200 269.200 C 210.336 268.980,210.807 268.800,211.247 268.800 C 211.687 268.800,211.936 268.980,211.800 269.200 M209.200 270.400 C 208.414 270.908,207.200 270.908,207.200 270.400 C 207.200 270.180,207.785 270.003,208.500 270.006 C 209.486 270.011,209.655 270.106,209.200 270.400 " stroke="none" fill="#bd7490" fill-rule="evenodd"/>
  </g>
  <text style="fill: rgb(255, 0, 0); font-family: Arial, sans-serif; font-size: 57px; font-weight: 700; white-space: pre;" x="86.897" y="65.353">CHP</text>
  <text style="fill: rgb(51, 51, 51); font-family: Arial, sans-serif; font-size: 57px; font-weight: 700; white-space: pre;" x="207.468" y="65.897">ADBLOCK</text>
</svg>